<svg width="59" height="93" viewBox="0 0 59 93" fill="none" xmlns="http://www.w3.org/2000/svg">
<path d="M33.3132 48.6913C31.9114 50.402 30.8515 50.8613 28.3865 50.6145C26.1214 49.9466 25.4896 49.2372 24.9272 47.6732" stroke="#14286A" stroke-width="2" stroke-linecap="round"/>
<path d="M32.0001 42.5C31.9476 44.1663 32.0001 45.8632 29.8539 45.8632C28.9892 45.8632 27 46 27.1285 44.1663" stroke="#14286A" stroke-width="2" stroke-linecap="round"/>
<path d="M36.8796 35.9082C35.454 35.9082 35.1675 37.2657 35.2024 37.9444C35.2024 38.5101 35.5379 39.6413 36.8796 39.6413C38.2214 39.6413 38.487 38.5101 38.452 37.9444C38.5219 37.2657 38.3052 35.9082 36.8796 35.9082Z" fill="#14286A"/>
<path d="M25.5 74.5L20.5 68.5L22 63.5L15 63.2316L20.5 55.5C20.5 55.5 22.2758 57.2686 24.9266 57.9147L29.6413 66.8515M25.5 74.5L24.4025 77.1459L39.3924 69.7928L36.9814 63.2316H43.1661L40.1262 54.9734C37.9705 56.7657 36.6943 57.5925 34.1512 58.3672L31.8962 62.6094L29.6413 66.8515M25.5 74.5L29.6413 66.8515" stroke="#14286A" stroke-width="2"/>
<path d="M2.80929 28.5551C0.502835 28.5551 0.293246 24.1433 2.80929 24.1433H9.62288L14.9689 4.68583C16.6831 1.0103 18.2002 0.410689 21.7825 1.63147C27.7644 4.50023 31.0573 4.54243 36.7724 1.63147C40.6624 0.330957 42.336 0.894677 44.2149 4.68583L49.8755 24.1433H56.584C58.3657 24.1433 58.5754 28.5551 56.584 28.5551H22.3064C17.5977 26.2087 14.9601 26.0555 10.2516 28.5551H2.80929Z" fill="#14286A" stroke="#14286A" stroke-width="2"/>
<path d="M49.117 28.9093V36.739C48.2784 35.5625 46.9507 35.6968 46.3916 35.8099V28.9093H49.117Z" stroke="#14286A" stroke-width="2"/>
<path d="M11.4046 54.8852C13.0493 54.712 16 55.4789 15.2831 57.6283L14 64C12.826 63.095 9.55267 63.1714 8.36466 63.1714L9.93702 56.0445C10.0974 55.3177 10.6796 54.9615 11.4046 54.8852ZM11.4046 54.8852L12.1383 51.6326M12.1383 51.6326L14.8638 52.1982M12.1383 51.6326C10.8806 51.2933 4.69576 46.542 4.6958 40.7727C4.6958 32.062 9.93702 26.9714 17.1699 26.9714C23.1449 26.9714 27.9695 33.2339 27.7572 40.7727C27.5183 49.257 19.0567 52.9901 14.8638 52.1982M14.8638 52.1982L14.13 55.4789" stroke="#14286A" stroke-width="2"/>
<path d="M6.49977 80C6.53364 80.3065 6.55709 80.6158 6.57435 80.9268C7.39761 83.3518 13.0458 84.4467 16.2264 79.5C17.4151 77.2241 19 73 19 70.5C19 67.5 19.0641 63 15.5 63L16.2261 59L19 58L18 63.5L21 64L19.5 69L24.2976 74.5V79.5L41 70.5L39 64.5L46 64L41.8741 56.4988C41.4185 55.6705 42.2117 54.8416 42.9916 55.376C45.5718 57.1441 47.9001 59.7737 49.8557 62.2663C52.1764 65.2241 54.0096 69.1049 55.2208 74.2575L55.6401 88.7375C55.6401 90.095 55.0112 91 53.5436 91H42.9563H24.2976H16.0165H12.4524C6.04987 88.9062 6.78861 84.7871 6.57435 80.9268C6.4751 80.6345 6.44598 80.3228 6.49977 80Z" fill="#14286A"/>
<path d="M24.2976 79.5L41 70.5L39 64.5L46 64L41.8741 56.4988C41.4185 55.6705 42.2117 54.8416 42.9916 55.376C45.5718 57.1441 47.9001 59.7737 49.8557 62.2663M24.2976 79.5V91M24.2976 79.5V74.5L19.5 69L21 64L18 63.5L19 58L16.2261 59L15.5 63C19.0641 63 19 67.5 19 70.5C19 73 17.4151 77.2241 16.2264 79.5M24.2976 91H16.0165M24.2976 91H42.9563M16.0165 91H12.4524C5.53402 88.7375 6.95401 84.1102 6.49977 80C5.9998 83 12.6624 85.0431 16.2264 79.5M16.0165 91L16.2264 79.5M49.8557 62.2663C52.1764 65.2241 54.0096 69.1049 55.2208 74.2575L55.6401 88.7375C55.6401 90.095 55.0112 91 53.5436 91H42.9563M49.8557 62.2663C44.1565 65.7802 42.6831 68.5741 42.9563 74.9363V91" stroke="#14286A" stroke-width="4"/>
<path d="M8.78418 63.1713C3.16559 63.1713 1.23682 68.6013 1.23682 72.4476C1.23682 75.3511 2.99787 80.4794 8.78418 80.4794C15.3881 80.4794 17.275 75.8413 17.275 72.4476C17.275 69.9588 16.8557 63.1713 8.78418 63.1713Z" stroke="#14286A" stroke-width="2"/>
<path d="M45.9967 43.9401C44.9389 47.5043 44.2034 49.3861 42.223 52.1982C35.3046 60.5694 24.4028 60.1169 16.8555 52.1982C22.516 51.4063 27.862 45.9788 27.862 40.9988C27.862 35.4557 26.6041 32.5145 22.6208 28.7814H45.9967V35.682M45.9967 43.9401V35.682M45.9967 43.9401C48.5094 43.9413 49.3952 43.3048 49.4559 40.3201C49.4186 36.6673 48.4799 35.9876 45.9967 35.682" stroke="#14286A" stroke-width="2"/>
<path d="M34.4658 33.1933L39.6022 31.3833" stroke="#14286A" stroke-width="2" stroke-linecap="round"/>
</svg>
