<svg width="61" height="89" viewBox="0 0 61 89" fill="none" xmlns="http://www.w3.org/2000/svg">
<path fill-rule="evenodd" clip-rule="evenodd" d="M0.664298 61.5587C1.36468 63.6456 2.06503 65.7324 4.16617 67.1238V49.724C3.82954 46.1984 4.70434 45.2342 7.66967 44.8521L53.9158 44.8519C56.0916 45.3757 56.7501 46.276 56.7186 49.0279V67.1238C56.7659 67.0764 56.8294 67.0161 56.9066 66.9429L56.907 66.9426C57.964 65.9403 61.5703 62.5207 60.9228 56.6839L58.12 44.8521C58.12 44.8521 56.7186 40.676 53.9158 39.2841C49.0109 37.196 45.6056 36.5 40 35.8041C44.9049 29.54 45.2007 26.0601 44.5 17.7082C43.0986 10.7482 41.1866 7.29844 36.7923 3.09238C31.012 -0.855564 27.7827 -1.20236 22 3.09234C17.0829 8.16924 15.9117 10.3663 14.6767 17.7082C14.6766 23.9721 14.7586 28.7748 19.5815 35.8041C15.9655 36.1749 13.9701 36.5 9.76589 37.892C6.9631 39.284 4.14908 40.7094 2.75891 44.8519C2.42117 45.8583 2.22593 46.9452 1.96714 48.3859C1.68902 49.9342 1.33749 51.8911 0.656811 54.5959L0.58447 54.8827C-0.0657621 57.4575 -0.344236 58.5603 0.663352 61.5558L0.664298 61.5587ZM6 51.1454V79.2812C5.99934 82.4966 6.67045 82.4967 9.35616 82.4967H52.3151H52.3152C54.9993 82.4966 55 82.4966 55 79.2812L54.9993 51.1453C54.9993 47.126 54.9993 47.126 51.644 47.126H51.6438H9.35616C6.94549 47.1066 6.00021 47.126 6 51.1454ZM55 87.3199L54.9993 84.9082C55 84.1044 54.9908 84.1044 53.6484 84.1044L7.80305 84.1044C7.16624 84.1044 6.88485 84.1044 6.7605 84.2442C6.66206 84.3548 6.66206 84.5531 6.66206 84.9082V87.3199C6.66206 87.6751 6.66206 87.8734 6.7605 87.984C6.88485 88.1238 7.16624 88.1238 7.80305 88.1238H53.6484C54.9908 88.1238 54.9908 88.1238 55 87.3199ZM17.5304 24.2879L17.5304 24.2879L17.5304 24.2879C17.6586 25.0098 17.7948 25.7766 17.9202 26.6275C19 30 20 31.5 22.0205 34.2312C28.1707 39.7612 32.0102 39.7176 37.0555 34.2311C38.9822 32.1358 39.6332 30.4586 40.3764 28.5439L40.3765 28.5438C40.6124 27.9359 40.8576 27.3042 41.1559 26.6275C42.9497 22.558 41.9175 16.5279 41.5 16C40.6525 13.8811 40.1641 13.9173 37.8258 14.0905L37.8257 14.0905C37.4051 14.1216 36.9247 14.1572 36.3716 14.1855C30.7962 15.0188 27.4745 14.9478 21.3367 14.1855C18.8601 13.7738 17.2231 14.9424 17.2364 16.9505C16.7513 19.9024 17.0949 21.8366 17.5304 24.2879ZM39.4547 15.1851C31.7294 15.8289 27.0678 16.083 19.3978 15.2323C18.869 15.1737 18.3806 15.5343 18.3106 16.0617C17.8064 19.8633 18.0875 24.2309 19.1374 27C21 33 25.1962 37.5 29.9999 37.5C34.1068 37.5 38.2996 32 39.9999 27C41.0183 24.0051 41.4892 19.1564 40.4348 15.8132C40.3035 15.3969 39.8897 15.1488 39.4547 15.1851ZM19.5 62.893C19.5 59.7253 21.6727 56.6238 25.6433 56.6238C29.614 56.6238 31.7866 59.7253 31.7866 62.893C31.7866 63.9897 31.4022 65.8636 30.2444 67.2296C29.321 68.319 27.8802 69.1622 25.6433 69.1622C23.153 69.1622 21.6425 68.1167 20.737 66.8352C19.8132 65.5279 19.5 63.9431 19.5 62.893ZM25.6433 55.6238C21.0089 55.6238 18.5 59.2915 18.5 62.893C18.5 64.0994 18.8511 65.8992 19.9203 67.4123C21.0079 68.9514 22.8191 70.1622 25.6433 70.1622C27.905 70.1622 29.5216 69.3855 30.6365 68.2776L40.6431 78.474L41.3569 77.7736L31.2906 67.5164C32.4217 65.9705 32.7866 64.0571 32.7866 62.893C32.7866 59.2915 30.2778 55.6238 25.6433 55.6238Z" fill="#14286A"/>
</svg>
