<svg width="67" height="93" viewBox="0 0 67 93" fill="none" xmlns="http://www.w3.org/2000/svg">
<path d="M41.169 57.3993C47.7365 52.951 54.0973 46.2503 53.8364 36.023C61.4369 39.5066 65.4483 48.8224 66.5039 53.0449C54.1531 54.3116 50.5376 57.0034 50.2737 58.191C56.6074 60.517 59.7743 63.3827 60.566 64.5247C36.1812 63.8914 27.9738 82.7342 26.9181 92.2347V73.2336C26.9181 64.9998 34.7033 60.6981 41.169 57.3993Z" fill="#14286A"/>
<path d="M12.2714 36.023C14.8049 49.9572 25.4667 58.4549 30.4809 60.962C28.5807 61.5954 25.4667 66.7679 24.1471 69.275C21.8991 66.7415 11.5986 64.5247 6.72943 63.733C8.62954 60.5662 14.6466 58.191 17.4176 57.3993C8.55037 56.1326 3.69452 53.1768 2.375 51.8573C3.95843 45.8403 9.63238 38.794 12.2714 36.023Z" fill="#14286A"/>
<path d="M41.169 57.3993C47.7365 52.951 54.0973 46.2503 53.8364 36.023C61.4369 39.5066 65.4483 48.8224 66.5039 53.0449C54.1531 54.3116 50.5376 57.0034 50.2737 58.191C56.6074 60.517 59.7743 63.3827 60.566 64.5247C36.1812 63.8914 27.9738 82.7342 26.9181 92.2347V73.2336C26.9181 64.9998 34.7033 60.6981 41.169 57.3993Z" stroke="black"/>
<path d="M12.2714 36.023C14.8049 49.9572 25.4667 58.4549 30.4809 60.962C28.5807 61.5954 25.4667 66.7679 24.1471 69.275C21.8991 66.7415 11.5986 64.5247 6.72943 63.733C8.62954 60.5662 14.6466 58.191 17.4176 57.3993C8.55037 56.1326 3.69452 53.1768 2.375 51.8573C3.95843 45.8403 9.63238 38.794 12.2714 36.023Z" stroke="black"/>
<path d="M29.5426 58.3181C18.7925 52.9956 14.8649 40.1832 14.251 34.0437C28.8185 38.1606 45.9196 35.7591 52.6491 34.0437C52.0918 49.0925 41.684 56.2528 34.698 58.6539C33.0044 59.236 31.1475 59.1127 29.5426 58.3181Z" fill="#14286A"/>
<path d="M17.8542 8.72904V21.0006C28.6215 26.3843 43.1891 23.2438 49.127 21.0006V8.72904C48.4937 -2.67164 40.946 -0.507629 37.2513 1.99946C34.4011 3.89959 30.7856 2.79118 29.3341 1.99946C19.5168 -3.3842 17.5903 4.24265 17.8542 8.72904Z" fill="#14286A"/>
<path d="M53.0856 22.1882C34.7178 30.1053 20.0975 25.487 15.0833 22.1882C-3.91784 23.1382 -1.01489 28.126 2.81173 30.5012C11.6525 33.5361 34.0844 38.26 53.0856 32.8763C72.0868 27.4926 61.0028 23.5077 53.0856 22.1882Z" fill="#14286A"/>
<path d="M17.8542 8.72904V21.0006C28.6215 26.3843 43.1891 23.2438 49.127 21.0006V8.72904C48.4937 -2.67164 40.946 -0.507629 37.2513 1.99946C34.4011 3.89959 30.7856 2.79118 29.3341 1.99946C19.5168 -3.3842 17.5903 4.24265 17.8542 8.72904Z" stroke="black"/>
<path d="M53.0856 22.1882C34.7178 30.1053 20.0975 25.487 15.0833 22.1882C-3.91784 23.1382 -1.01489 28.126 2.81173 30.5012C11.6525 33.5361 34.0844 38.26 53.0856 32.8763C72.0868 27.4926 61.0028 23.5077 53.0856 22.1882Z" stroke="black"/>
</svg>
