<svg width="97" height="76" viewBox="0 0 97 76" fill="none" xmlns="http://www.w3.org/2000/svg">
<path fill-rule="evenodd" clip-rule="evenodd" d="M63.0552 0L63.0544 9.53674e-07C62.7988 0.000288963 62.5475 0.0659252 62.3243 0.190675C62.1015 0.31525 61.9142 0.494643 61.7801 0.711855L61.7796 0.71277L58.5242 5.96745L58.5238 5.96804C58.3623 6.22934 58.2841 6.53362 58.2996 6.84043C58.3152 7.14724 58.4237 7.44205 58.6109 7.68569L58.6117 7.68677L67.9968 19.8597C60.1539 20.2519 53.1732 23.9178 48.3935 29.5188C43.6552 24.0964 36.8302 20.5443 29.171 20.115C34.9016 14.9125 38.6423 11.3598 38.6423 7.05894C38.6423 3.4037 35.7796 0.552846 32.1362 0.552846C30.0779 0.552846 28.1024 1.51102 26.813 3.01333C25.5236 1.51102 23.5481 0.552846 21.4898 0.552846C17.8464 0.552846 14.9837 3.4037 14.9837 7.05894C14.9837 11.3925 18.7815 14.9665 24.5861 20.234C10.7607 21.7362 0 33.4478 0 47.6728C0 62.9167 12.3577 75.2744 27.6016 75.2744C36.012 75.2744 43.5437 71.5128 48.6063 65.5803C53.666 71.3704 61.105 75.0279 69.3982 75.0279C84.6422 75.0279 96.9999 62.6703 96.9999 47.4263C96.9999 32.6523 85.3924 20.5894 70.7996 19.8597L80.1848 7.68677L80.1856 7.68569C80.3727 7.44205 80.4813 7.14724 80.4968 6.84043C80.5124 6.53362 80.4342 6.22934 80.2726 5.96804L80.2723 5.96745L77.0169 0.71277L70.0407 0.356644L70.0402 0.355895L77.016 0.711283C76.8819 0.494328 76.6947 0.315141 76.4721 0.190675C76.249 0.0659251 75.9977 0.000288963 75.7421 4.76837e-07H75.7412H69.3982L63.0552 0ZM51.8622 60.8472C55.8979 66.1125 62.2516 69.5076 69.3982 69.5076C81.5934 69.5076 91.4795 59.6215 91.4795 47.4263C91.4795 35.2312 81.5934 25.345 69.3982 25.345C62.158 25.345 55.7317 28.8296 51.7048 34.2132C53.9331 38.195 55.2033 42.7855 55.2033 47.6728C55.2033 52.4438 53.9928 56.932 51.8622 60.8472ZM48.4578 40.4016C49.2515 42.6785 49.6829 45.1253 49.6829 47.6728C49.6829 50.1286 49.282 52.4908 48.5421 54.6975C47.7483 52.4206 47.3169 49.9738 47.3169 47.4263C47.3169 44.9705 47.7178 42.6083 48.4578 40.4016ZM45.1377 34.2519C43.0071 38.1671 41.7966 42.6553 41.7966 47.4263C41.7966 52.3135 43.0668 56.9041 45.295 60.8859C41.2682 66.2695 34.8418 69.7541 27.6016 69.7541C15.4065 69.7541 5.52032 59.8679 5.52032 47.6728C5.52032 35.4776 15.4065 25.5915 27.6016 25.5915C34.7483 25.5915 41.1019 28.9866 45.1377 34.2519ZM63.0544 9.53674e-07L68.8036 0.292899L68.8032 0.293469L63.0544 9.53674e-07ZM67.8982 1.5H63.5648L65.1406 5.17684L67.8982 1.5ZM62.3923 2.57196L60.3214 5.91463H63.8249L62.3923 2.57196ZM64.4316 7.41463H60.2959L67.9232 17.3076L64.4316 7.41463ZM70.8732 17.3075L78.5005 7.41463H74.3648L70.8732 17.3075ZM72.7742 7.41463L69.3982 16.9798L66.0223 7.41463H72.7742ZM66.4623 5.91463L69.3982 2L72.3342 5.91463H66.4623ZM74.9716 5.91463H78.475L76.4042 2.57197L74.9716 5.91463ZM75.2317 1.5H70.8982L73.6559 5.17684L75.2317 1.5Z" fill="#14286A"/>
</svg>
