<svg width="81" height="90" viewBox="0 0 81 90" fill="none" xmlns="http://www.w3.org/2000/svg">
<path d="M31 51.0708C31.1186 40.5167 39.8544 32.6901 50.2504 33.7573C59.5791 34.706 66.5757 43.4023 65.5479 52.6915C65.1131 56.4467 63.7296 59.7671 61.1602 62.5341C60.765 62.9689 60.6859 63.2456 61.1207 63.6804C61.5555 64.1152 61.9508 64.6686 62.3461 65.143C63.0181 65.9731 63.5715 66.8427 64.8759 66.7636C65.6665 66.7241 66.3385 67.3566 66.8919 67.989C71.3191 73.4044 75.7463 78.7803 80.1339 84.1957C81.3988 85.7768 81.1617 87.9509 79.6596 89.1763C78.118 90.4412 75.9439 90.2436 74.5999 88.6229C70.7657 83.9585 66.9314 79.2546 63.0971 74.5903C62.6228 73.9974 62.1485 73.4044 61.6741 72.851C60.765 71.8233 60.3301 70.677 60.6464 69.333C60.7254 68.9772 60.5278 68.7796 60.3697 68.5424C59.6582 67.6728 58.9466 66.8427 58.2747 65.9731C57.9189 65.4987 57.6422 65.4592 57.1283 65.7754C54.2823 67.4751 51.1595 68.2657 47.7996 68.1867C40.3287 68.0681 33.4903 62.6922 31.5929 55.498C31.1976 54.075 31.0395 52.5334 31 51.0708ZM48.3135 37.394C40.8031 37.394 34.7157 43.4814 34.7157 50.9522C34.7157 58.4627 40.7635 64.55 48.274 64.5896C55.7448 64.6291 61.9508 58.5022 61.9508 51.0313C61.9508 43.4813 55.8634 37.394 48.3135 37.394Z" fill="#14286A"/>
<path d="M15.7033 40.3981C15.7033 44.7858 15.7823 49.1734 15.7033 53.5611C15.6242 57.1582 14.0036 60.0438 11.0389 62.0597C9.89259 62.8108 8.62768 63.206 7.24418 63.206C6.2955 63.206 5.62351 62.5341 5.58398 61.6249C5.58398 60.7553 6.13738 60.0438 7.04654 59.9647C9.73448 59.8066 11.0389 58.0278 12.0271 55.8142C12.4224 54.9446 12.4619 54.0354 12.4619 53.0867C12.4619 44.4695 12.4619 35.8918 12.4619 27.2746C12.4619 27.0375 12.4619 26.8003 12.4619 26.5631C12.541 25.5749 13.2525 24.9029 14.1617 24.9425C15.0313 24.982 15.7033 25.654 15.7428 26.6027C15.7823 27.7885 15.7428 28.9744 15.7428 30.1602C15.7033 33.5597 15.7033 36.9591 15.7033 40.3981Z" fill="#14286A"/>
<path d="M0.00988167 43.0465C0.00988167 39.8842 0.00988167 36.7219 0.00988167 33.5597C0.00988167 32.7296 0.326109 32.0971 1.11668 31.8599C1.86772 31.6228 2.53971 31.8599 3.01405 32.5714C3.25122 32.9667 3.21169 33.4015 3.21169 33.8364C3.21169 39.7261 3.21169 45.6554 3.21169 51.5451C3.21169 51.9009 3.21169 52.2566 3.29075 52.5729C3.44886 53.3634 3.96273 53.7983 4.7533 53.7983C5.54387 53.7983 6.09727 53.3239 6.17633 52.5333C6.25538 51.9009 6.21586 51.2684 6.21586 50.5964C6.21586 48.1062 6.21586 45.6159 6.21586 43.086C6.21586 41.7421 7.20407 40.991 8.31087 41.3863C9.02238 41.6235 9.41766 42.1373 9.41766 42.8884C9.41766 46.1297 9.45719 49.4106 9.41766 52.6519C9.33861 55.1422 7.12501 57.0791 4.67424 57.0396C2.18395 57.0001 0.0889396 55.0236 0.0494111 52.5333C-0.0296459 49.3711 0.00988167 46.2088 0.00988167 43.0465Z" fill="#14286A"/>
<path d="M6.25542 30.3579C6.33448 27.9862 6.01825 25.1401 6.69024 22.3732C8.50855 14.7442 13.1729 9.68451 20.5647 7.15468C21.4739 6.83846 22.4226 7.35233 22.6598 8.18242C22.9365 9.09158 22.5016 9.92168 21.4344 10.2774C19.3394 10.9494 17.442 11.9772 15.7423 13.3607C11.5918 16.7996 9.53629 21.2664 9.45723 26.6027C9.4177 30.0812 9.45723 33.5597 9.45723 37.0778C9.45723 38.4217 8.46902 39.2123 7.3227 38.7775C6.53213 38.5008 6.29495 37.8683 6.29495 37.0382C6.25542 34.9432 6.25542 32.8482 6.25542 30.3579Z" fill="#14286A"/>
<path d="M18.707 32.4133C18.707 30.4764 18.707 28.5791 18.707 26.6422C18.707 22.3336 22.067 18.8155 26.2174 18.697C30.5656 18.6179 34.0836 21.8988 34.3208 26.2469C34.3603 27.3537 33.7674 28.1443 32.7792 28.1838C31.8305 28.2233 31.1585 27.5513 31.0794 26.405C30.8818 23.7566 28.9054 21.8988 26.336 21.9383C23.8457 21.9778 21.9484 23.9542 21.9484 26.6027C21.9484 30.595 21.9484 34.5479 21.9484 38.5403C21.9484 39.6866 21.474 40.319 20.5649 40.4376C19.4976 40.5957 18.707 39.8842 18.707 38.6984C18.707 36.6824 18.707 34.5479 18.707 32.4133Z" fill="#14286A"/>
<path d="M28.1152 49.1339C28.0361 51.2684 28.3128 53.8773 27.9571 56.4862C27.206 61.9016 24.8343 66.4869 20.842 70.2026C20.0119 70.9536 19.0236 70.9536 18.3517 70.2421C17.7192 69.5701 17.8378 68.5424 18.6679 67.7914C21.7116 64.9058 23.688 61.4668 24.5181 57.3163C24.7553 56.0514 24.8739 54.7865 24.8739 53.5216C24.8739 49.8454 24.8739 46.2088 24.8739 42.5326C24.8739 42.2559 24.8739 42.0188 24.9134 41.7421C25.032 40.7539 25.6644 40.1609 26.5736 40.2005C27.4432 40.24 28.1152 40.8725 28.1152 41.8607C28.1152 44.1138 28.1152 46.3669 28.1152 49.1339Z" fill="#14286A"/>
<path d="M21.9486 50.9126C21.8695 52.81 22.1067 55.0236 21.6324 57.1977C20.6442 61.783 18.1539 65.301 14.1615 67.7518C13.1337 68.3842 12.1455 68.1866 11.6317 67.3565C11.1573 66.5264 11.4735 65.6173 12.5013 64.9848C16.5727 62.4154 18.6677 58.6998 18.7073 53.8773C18.7073 51.387 18.7073 48.9362 18.7073 46.4855C18.7073 45.2601 19.3397 44.5486 20.3279 44.509C21.3161 44.509 21.9486 45.2601 21.9486 46.4459C21.9486 47.7899 21.9486 49.2129 21.9486 50.9126Z" fill="#14286A"/>
<path d="M53.0582 25.7726C53.0582 25.9702 53.0582 26.2865 53.0582 26.6027C52.9791 27.5119 52.3466 28.1443 51.477 28.1443C50.6074 28.1443 49.9354 27.5514 49.8168 26.6818C49.7378 25.654 49.7378 24.6658 49.5796 23.6381C48.7495 17.353 45.7849 12.2539 40.9229 8.26148C40.7253 8.10336 40.4881 7.94525 40.33 7.74761C39.7371 7.15468 39.658 6.28505 40.1323 5.61307C40.6067 4.94108 41.5158 4.70391 42.2273 5.17826C42.9389 5.61307 43.5713 6.206 44.2038 6.7594C49.5797 11.4633 52.8605 18.5389 53.0582 25.7726Z" fill="#14286A"/>
<path d="M0.00976562 25.4563C0.444579 17.5506 3.68592 11.0284 9.7733 5.96876C10.2872 5.53395 10.801 5.17819 11.5126 5.37583C12.145 5.57348 12.5798 5.96876 12.7379 6.64075C12.8961 7.39179 12.5403 7.90566 11.9869 8.38C9.37802 10.475 7.32254 13.0048 5.82045 15.9299C4.12073 19.2503 3.33016 22.7684 3.2511 26.4841C3.21157 27.5118 2.53959 28.1838 1.63043 28.1442C0.721279 28.1047 0.128351 27.4723 0.0888229 26.4841C0.00976593 26.1678 0.00976562 25.8121 0.00976562 25.4563Z" fill="#14286A"/>
<path d="M26.5735 0C29.8543 0 32.9771 0.592928 36.0208 1.73925C37.0881 2.13454 37.5624 2.96464 37.2462 3.87379C36.93 4.78295 36.0208 5.17823 34.9535 4.78295C29.4591 2.767 23.9646 2.64841 18.4306 4.66436C17.2843 5.09918 16.4147 4.74342 16.0589 3.79474C15.7031 2.84605 16.1775 2.05548 17.3633 1.62067C20.2885 0.5534 23.4112 0 26.5735 0Z" fill="#14286A"/>
<path d="M37.3652 35.1804C37.3652 33.955 37.3652 32.8878 37.3652 31.781C37.3257 29.7255 37.4838 27.67 37.2862 25.6145C36.9699 22.4918 35.5469 19.9619 33.0961 17.9855C32.5032 17.5112 32.0289 16.9578 32.187 16.1672C32.4637 14.9418 33.8077 14.4675 34.8749 15.2976C37.8 17.5112 39.6579 20.3968 40.3299 24.0334C40.8833 27.0375 40.5275 30.0417 40.6066 33.0854C40.6066 33.4016 40.488 33.5597 40.2113 33.6783C39.3021 34.1131 38.393 34.627 37.3652 35.1804Z" fill="#14286A"/>
<path d="M26.9287 6.24553C32.3836 6.44317 37.0084 8.45913 40.8822 12.2934C41.3566 12.7677 41.8309 13.2816 41.7914 13.9931C41.7519 14.6256 41.3961 15.1394 40.7636 15.3766C40.0521 15.6533 39.4592 15.4557 38.9453 14.9418C37.9571 13.9141 36.9294 13.0049 35.7435 12.2539C33.0161 10.4751 29.9724 9.56592 26.6915 9.48687C25.9405 9.48687 25.3871 9.21017 25.0708 8.53818C24.7941 7.90573 24.9127 7.27327 25.3871 6.7594C25.8219 6.32459 26.3753 6.206 26.9287 6.24553Z" fill="#14286A"/>
<path d="M25.9397 12.4911C27.4418 12.4515 28.3114 13.1631 28.1928 14.2303C28.1138 15.1395 27.4418 15.6929 26.3745 15.6929C23.0146 15.8115 20.2871 17.1554 18.1131 19.7248C17.5201 20.4363 17.0853 21.1873 16.69 22.0174C16.2157 23.0057 15.267 23.3614 14.3974 22.9266C13.6068 22.5313 13.2906 21.5826 13.7254 20.6735C15.9785 16.0486 19.6152 13.3212 24.7143 12.5701C25.1887 12.5701 25.663 12.5306 25.9397 12.4911Z" fill="#14286A"/>
<path d="M28.1144 32.3343C28.1144 33.9154 28.1144 35.457 28.1144 37.0382C28.1144 38.145 27.4819 38.8565 26.5332 38.8565C25.5846 38.8565 24.9126 38.224 24.873 37.1172C24.8335 33.9154 24.873 30.7136 24.873 27.5118C24.873 26.405 25.545 25.733 26.4937 25.733C27.4424 25.733 28.0748 26.4841 28.0748 27.6304C28.1144 29.2115 28.1144 30.7927 28.1144 32.3343Z" fill="#14286A"/>
<path d="M30.605 58.344C31.3165 59.7275 31.949 60.9529 32.7395 62.0992C32.9372 62.3364 32.7791 62.6131 32.7 62.8502C31.6723 65.7754 30.0121 68.3842 27.9961 70.7164C27.3241 71.507 26.415 71.6256 25.7035 71.0326C24.9524 70.4397 24.8338 69.4515 25.5058 68.6609C27.5613 66.1706 29.2215 63.4432 30.0911 60.2809C30.2492 59.688 30.4074 59.095 30.605 58.344Z" fill="#14286A"/>
<path d="M31.1191 42.1769C31.1191 39.6075 31.1191 37.0382 31.1191 34.4688C31.1191 33.6782 31.7121 33.1248 32.5026 33.0062C33.3327 32.8877 34.0442 33.3225 34.2419 34.113C34.5186 35.2989 34.3605 36.5243 34.3605 37.7497C34.3605 37.8287 34.3209 37.9078 34.2419 37.9868C33.056 39.2913 32.0678 40.7143 31.1191 42.1769Z" fill="#14286A"/>
<path d="M46.8113 29.0139C46.8113 29.765 46.8113 30.516 46.8113 31.2671C46.8113 31.7019 46.6532 31.8995 46.2184 31.939C45.665 31.9786 45.1116 32.0972 44.5977 32.1762C43.6095 32.3343 43.6095 32.3343 43.6095 31.2671C43.6095 29.7254 43.57 28.1838 43.649 26.6422C43.6885 25.654 44.3605 25.0611 45.2697 25.1006C46.1788 25.1006 46.7718 25.7331 46.8508 26.7213C46.8508 26.9189 46.8508 27.1166 46.8508 27.3142C46.8113 27.9071 46.8113 28.4605 46.8113 29.0139Z" fill="#14286A"/>
<path d="M51.4753 30.4369C51.9101 30.4369 52.3054 30.6345 52.6216 30.9508C52.9774 31.3065 53.2145 31.7809 52.9774 32.2157C52.7797 32.5714 52.3449 32.2157 52.0287 32.2157C51.4753 32.1761 50.9614 32.0576 50.408 31.9785C49.8151 31.939 49.8546 31.6227 50.0918 31.2275C50.408 30.7136 50.8428 30.4369 51.4753 30.4369Z" fill="#14286A"/>
</svg>
