<svg width="110" height="90" viewBox="0 0 110 90" fill="none" xmlns="http://www.w3.org/2000/svg">
<path d="M27.6833 57.2897C20.8308 46.3928 16.1183 33.1146 12.7805 13.6494C28.8664 6.30858 42.7492 2.57709 56.2284 2.50118C69.6891 2.42538 82.9532 5.99436 97.8026 13.5773C95.0208 31.6367 90.8548 44.5001 84.2494 55.5423C77.6847 66.5164 68.6129 75.8584 55.717 86.7551C43.4654 76.7139 34.4731 68.087 27.6833 57.2897Z" stroke="#14286A" stroke-width="5"/>
<path fill-rule="evenodd" clip-rule="evenodd" d="M8.46166 39.771C27.8568 13.8744 78.3928 7.42215 101.541 39.771C71.7676 67.3508 46.3862 70.4249 8.46166 39.771ZM73.6143 39.3302C73.6143 49.3626 65.2797 57.4954 54.9984 57.4954C44.7172 57.4954 36.3826 49.3626 36.3826 39.3302C36.3826 29.2979 44.7172 21.1651 54.9984 21.1651C65.2797 21.1651 73.6143 29.2979 73.6143 39.3302ZM42.7861 39.3302C42.7861 45.9116 48.2538 51.2469 54.9984 51.2469C61.7431 51.2469 67.2108 45.9116 67.2108 39.3302C67.2108 32.7489 61.7431 27.4136 54.9984 27.4136C48.2538 27.4136 42.7861 32.7489 42.7861 39.3302ZM106.122 39.7128C104.399 35.1518 91.3415 26.3971 85.0546 22.8165C90.2636 23.5538 104.32 33.888 110 40.115C101.696 52.8808 79.3421 63.9795 67.6911 64.1009C85.0082 61.5146 100.527 46.7645 106.122 39.7128ZM24.9454 22.8165C18.6585 26.3971 5.60085 35.1518 3.87783 39.7128C9.4727 46.7645 24.9917 61.5146 42.3088 64.1009C30.6578 63.9795 8.30387 52.8808 0 40.115C5.67964 33.888 19.7364 23.5538 24.9454 22.8165ZM69.7145 40.9539C70.6622 40.9539 71.4305 40.227 71.4305 39.3302C71.4305 38.4335 70.6622 37.7065 69.7145 37.7065C68.7668 37.7065 67.9985 38.4335 67.9985 39.3302C67.9985 40.227 68.7668 40.9539 69.7145 40.9539ZM67.1699 49.4784C67.1699 50.4312 66.3783 51.2036 65.4019 51.2036C64.4254 51.2036 63.6339 50.4312 63.6339 49.4784C63.6339 48.5256 64.4254 47.7532 65.4019 47.7532C66.3783 47.7532 67.1699 48.5256 67.1699 49.4784ZM54.997 55.3643C55.916 55.3643 56.6609 54.6147 56.6609 53.6899C56.6609 52.7651 55.916 52.0154 54.997 52.0154C54.078 52.0154 53.333 52.7651 53.333 53.6899C53.333 54.6147 54.078 55.3643 54.997 55.3643ZM46.3662 49.4784C46.3662 50.4312 45.5747 51.2036 44.5983 51.2036C43.6218 51.2036 42.8303 50.4312 42.8303 49.4784C42.8303 48.5256 43.6218 47.7532 44.5983 47.7532C45.5747 47.7532 46.3662 48.5256 46.3662 49.4784ZM40.2826 40.9539C41.2303 40.9539 41.9986 40.227 41.9986 39.3302C41.9986 38.4335 41.2303 37.7065 40.2826 37.7065C39.3349 37.7065 38.5666 38.4335 38.5666 39.3302C38.5666 40.227 39.3349 40.9539 40.2826 40.9539ZM46.3662 29.1822C46.3662 30.135 45.5747 30.9074 44.5983 30.9074C43.6218 30.9074 42.8303 30.135 42.8303 29.1822C42.8303 28.2294 43.6218 27.457 44.5983 27.457C45.5747 27.457 46.3662 28.2294 46.3662 29.1822ZM54.997 26.6451C55.916 26.6451 56.6609 25.8954 56.6609 24.9706C56.6609 24.0459 55.916 23.2962 54.997 23.2962C54.078 23.2962 53.333 24.0459 53.333 24.9706C53.333 25.8954 54.078 26.6451 54.997 26.6451ZM67.1699 29.1822C67.1699 30.135 66.3783 30.9074 65.4019 30.9074C64.4254 30.9074 63.6339 30.135 63.6339 29.1822C63.6339 28.2294 64.4254 27.457 65.4019 27.457C66.3783 27.457 67.1699 28.2294 67.1699 29.1822ZM54.9982 44.2844C57.8022 44.2844 60.0753 42.0664 60.0753 39.3303C60.0753 36.5942 57.8022 34.3762 54.9982 34.3762C52.1942 34.3762 49.9211 36.5942 49.9211 39.3303C49.9211 42.0664 52.1942 44.2844 54.9982 44.2844Z" fill="#14286A"/>
</svg>
