<?xml version="1.0" encoding="utf-8"?>
<!-- Generator: Adobe Illustrator 17.0.0, SVG Export Plug-In . SVG Version: 6.00 Build 0)  -->
<!DOCTYPE svg PUBLIC "-//W3C//DTD SVG 1.1//EN" "http://www.w3.org/Graphics/SVG/1.1/DTD/svg11.dtd">
<svg version="1.1" id="Layer_1" xmlns="http://www.w3.org/2000/svg" xmlns:xlink="http://www.w3.org/1999/xlink" x="0px" y="0px"
	 width="841.89px" height="595.28px" viewBox="0 0 841.89 595.28" enable-background="new 0 0 841.89 595.28" xml:space="preserve">
<g>
	<linearGradient id="SVGID_1_" gradientUnits="userSpaceOnUse" x1="113.6274" y1="301.8804" x2="366.1353" y2="301.8804">
		<stop  offset="0" style="stop-color:#787A74"/>
		<stop  offset="0.335" style="stop-color:#EAE9E5"/>
		<stop  offset="0.6453" style="stop-color:#BCBEC0"/>
		<stop  offset="1" style="stop-color:#EAE9E5"/>
	</linearGradient>
	<path fill="url(#SVGID_1_)" d="M113.627,390.951c0,0,35.579-27.264,126.254-27.264c90.673,0,126.254,27.264,126.254,27.264
		L239.806,212.81L113.627,390.951z"/>
</g>
<g>
	<linearGradient id="SVGID_2_" gradientUnits="userSpaceOnUse" x1="119.8325" y1="293.399" x2="359.9302" y2="293.399">
		<stop  offset="0" style="stop-color:#0060A2"/>
		<stop  offset="0.3498" style="stop-color:#0082BD"/>
		<stop  offset="0.6453" style="stop-color:#0060A2"/>
		<stop  offset="1" style="stop-color:#0082BD"/>
	</linearGradient>
	<path fill="url(#SVGID_2_)" d="M119.832,382.469c0,0,33.832-27.264,120.049-27.264c86.215,0,120.049,27.264,120.049,27.264
		l-120.121-178.14L119.832,382.469z"/>
</g>
<g>
	<defs>
		<path id="SVGID_3_" d="M120.051,382.469c0,0,33.753-27.264,119.77-27.264s119.771,27.264,119.771,27.264L239.75,204.329
			L120.051,382.469z"/>
	</defs>
	<clipPath id="SVGID_4_">
		<use xlink:href="#SVGID_3_"  overflow="visible"/>
	</clipPath>
	<linearGradient id="SVGID_5_" gradientUnits="userSpaceOnUse" x1="82.5952" y1="334.4232" x2="287.3026" y2="334.4232">
		<stop  offset="0" style="stop-color:#FFFFFF;stop-opacity:0"/>
		<stop  offset="1" style="stop-color:#FFFFFF;stop-opacity:0.3"/>
	</linearGradient>
	<path clip-path="url(#SVGID_4_)" fill="url(#SVGID_5_)" d="M172.968,237.19c0,0,129.26,20.891,112.903,169.886
		c-47.576,46.34-203.276,12.932-203.276,12.932L172.968,237.19z"/>
</g>
<g>
	<defs>
		<path id="SVGID_6_" d="M120.165,382.469c0,0,33.781-27.264,119.872-27.264c86.088,0,119.87,27.264,119.87,27.264L239.963,204.33
			L120.165,382.469z"/>
	</defs>
	<clipPath id="SVGID_7_">
		<use xlink:href="#SVGID_6_"  overflow="visible"/>
	</clipPath>
	<linearGradient id="SVGID_8_" gradientUnits="userSpaceOnUse" x1="200.4759" y1="308.5398" x2="290.8034" y2="308.5398">
		<stop  offset="0" style="stop-color:#787A74"/>
		<stop  offset="0.335" style="stop-color:#939598"/>
		<stop  offset="0.6453" style="stop-color:#787A74"/>
		<stop  offset="1" style="stop-color:#EAE9E5"/>
	</linearGradient>
	<path clip-path="url(#SVGID_7_)" fill="url(#SVGID_8_)" d="M257.704,291.598l14.95-34.135l-54.711,18.908l-4.816,1.664
		c-0.693,0.33-1.372,0.703-2.036,1.111c-1.191,0.732-2.335,1.582-3.398,2.566c-9.707,8.959-9.609,24.852,0.218,35.5
		c6.975,7.557,16.976,10.434,25.663,8.272l-14.949,34.131l54.712-18.906l4.813-1.662c0.695-0.334,1.373-0.705,2.038-1.113
		c1.192-0.734,2.336-1.582,3.398-2.565c9.709-8.961,9.61-24.859-0.218-35.508C276.393,292.311,266.393,289.434,257.704,291.598z"/>
	<linearGradient id="SVGID_9_" gradientUnits="userSpaceOnUse" x1="215.0712" y1="399.26" x2="235.0703" y2="328.5976">
		<stop  offset="0" style="stop-color:#776B68"/>
		<stop  offset="1" style="stop-color:#FFFFFF"/>
	</linearGradient>
	<path clip-path="url(#SVGID_7_)" fill="url(#SVGID_9_)" d="M252.101,294.106l14.95-34.135l-54.711,18.908l-4.814,1.664
		c-0.695,0.33-1.373,0.703-2.037,1.111c-1.191,0.732-2.335,1.582-3.398,2.566c-9.707,8.959-9.609,24.852,0.218,35.501
		c6.974,7.557,16.976,10.434,25.663,8.271l-14.949,34.131l54.712-18.906l4.813-1.662c0.696-0.334,1.373-0.705,2.038-1.113
		c1.193-0.734,2.336-1.582,3.398-2.565c9.709-8.961,9.61-24.859-0.219-35.508C270.79,294.819,260.79,291.942,252.101,294.106z"/>
</g>
<circle fill="#8DC63F" cx="417.37" cy="283.964" r="8.915"/>
<g>
	<path fill="#0060A2" d="M383.581,323.582v23.767h-4.767v-23.767H383.581z"/>
	<path fill="#0060A2" d="M404.182,330.341c1.384,1.419,2.077,3.399,2.077,5.941v11.066h-4.768v-10.42
		c0-1.498-0.374-2.649-1.123-3.455c-0.75-0.806-1.771-1.209-3.064-1.209c-1.317,0-2.355,0.403-3.116,1.209s-1.141,1.957-1.141,3.455
		v10.42h-4.767v-18.863h4.767v2.349c0.636-0.816,1.447-1.458,2.435-1.924c0.987-0.465,2.071-0.697,3.252-0.697
		C400.98,328.213,402.797,328.922,404.182,330.341z"/>
	<path fill="#0060A2" d="M419.436,332.4h-3.303v14.948h-4.835V332.4h-2.146v-3.915h2.146v-0.954c0-2.315,0.658-4.018,1.975-5.107
		s3.303-1.601,5.959-1.532v4.018c-1.158-0.021-1.964,0.171-2.418,0.579c-0.454,0.409-0.681,1.146-0.681,2.214v0.783h3.303V332.4z"/>
	<path fill="#0060A2" d="M426.006,346.446c-1.453-0.806-2.594-1.946-3.422-3.422c-0.829-1.476-1.243-3.178-1.243-5.107
		s0.426-3.632,1.277-5.107s2.015-2.616,3.49-3.423c1.476-0.805,3.121-1.208,4.938-1.208c1.815,0,3.461,0.403,4.937,1.208
		c1.476,0.807,2.639,1.947,3.49,3.423s1.277,3.178,1.277,5.107s-0.438,3.632-1.312,5.107s-2.055,2.616-3.541,3.422
		c-1.487,0.806-3.149,1.209-4.988,1.209C429.093,347.655,427.459,347.252,426.006,346.446z M433.344,342.871
		c0.761-0.42,1.367-1.05,1.821-1.89s0.682-1.861,0.682-3.064c0-1.793-0.472-3.172-1.413-4.138c-0.942-0.964-2.095-1.447-3.456-1.447
		c-1.362,0-2.503,0.483-3.422,1.447c-0.92,0.966-1.379,2.345-1.379,4.138s0.447,3.172,1.345,4.137
		c0.896,0.965,2.025,1.447,3.388,1.447C431.771,343.501,432.583,343.291,433.344,342.871z"/>
	<path fill="#0060A2" d="M456.089,346.735c-1.328-0.566-2.378-1.384-3.149-2.451c-0.772-1.066-1.17-2.327-1.192-3.779h5.107
		c0.068,0.976,0.414,1.748,1.039,2.315c0.624,0.567,1.48,0.851,2.57,0.851c1.112,0,1.986-0.267,2.622-0.8
		c0.635-0.533,0.953-1.231,0.953-2.095c0-0.703-0.216-1.282-0.646-1.736c-0.432-0.453-0.971-0.812-1.617-1.072
		c-0.647-0.261-1.538-0.55-2.674-0.868c-1.544-0.454-2.798-0.902-3.762-1.345c-0.966-0.443-1.794-1.112-2.486-2.01
		c-0.692-0.896-1.038-2.094-1.038-3.592c0-1.407,0.352-2.633,1.056-3.678c0.703-1.044,1.69-1.844,2.962-2.4
		c1.271-0.556,2.725-0.834,4.358-0.834c2.452,0,4.443,0.596,5.976,1.788c1.532,1.191,2.378,2.854,2.537,4.988h-5.244
		c-0.045-0.817-0.392-1.493-1.038-2.026s-1.504-0.8-2.57-0.8c-0.932,0-1.675,0.238-2.23,0.715c-0.557,0.477-0.834,1.169-0.834,2.077
		c0,0.636,0.209,1.163,0.63,1.583c0.419,0.42,0.941,0.761,1.565,1.021s1.504,0.562,2.64,0.902c1.543,0.454,2.803,0.908,3.779,1.362
		c0.976,0.454,1.815,1.135,2.52,2.043c0.703,0.908,1.056,2.1,1.056,3.575c0,1.271-0.329,2.451-0.987,3.541
		c-0.659,1.09-1.623,1.958-2.895,2.604c-1.271,0.647-2.781,0.971-4.528,0.971C458.909,347.587,457.417,347.304,456.089,346.735z"/>
	<path fill="#0060A2" d="M490.496,339.347h-13.79c0.113,1.362,0.59,2.43,1.43,3.201s1.873,1.157,3.099,1.157
		c1.771,0,3.03-0.76,3.779-2.281h5.142c-0.545,1.816-1.589,3.309-3.133,4.478c-1.544,1.17-3.438,1.754-5.686,1.754
		c-1.816,0-3.445-0.403-4.887-1.209s-2.565-1.946-3.371-3.422s-1.208-3.178-1.208-5.107c0-1.952,0.396-3.666,1.191-5.142
		c0.794-1.476,1.906-2.61,3.337-3.405c1.43-0.794,3.075-1.191,4.938-1.191c1.793,0,3.398,0.386,4.817,1.157
		c1.419,0.772,2.52,1.867,3.303,3.286s1.175,3.047,1.175,4.886C490.632,338.189,490.586,338.802,490.496,339.347z M485.695,336.146
		c-0.023-1.227-0.466-2.208-1.328-2.945c-0.863-0.738-1.919-1.107-3.167-1.107c-1.181,0-2.174,0.357-2.979,1.073
		c-0.806,0.715-1.3,1.708-1.48,2.979H485.695z"/>
	<path fill="#0060A2" d="M501.271,329.063c0.987-0.567,2.116-0.851,3.389-0.851v5.005h-1.261c-1.498,0-2.627,0.353-3.388,1.056
		c-0.761,0.704-1.141,1.93-1.141,3.677v9.398h-4.767v-18.863h4.767v2.928C499.484,330.414,500.284,329.632,501.271,329.063z"/>
	<path fill="#0060A2" d="M515.726,342.956l4.767-14.471h5.074l-6.98,18.863h-5.788l-6.946-18.863h5.107L515.726,342.956z"/>
	<path fill="#0060A2" d="M528.579,325.438c-0.557-0.533-0.834-1.197-0.834-1.992c0-0.794,0.277-1.458,0.834-1.992
		c0.556-0.532,1.254-0.8,2.094-0.8s1.538,0.268,2.095,0.8c0.556,0.534,0.834,1.198,0.834,1.992c0,0.795-0.278,1.459-0.834,1.992
		c-0.557,0.533-1.255,0.8-2.095,0.8S529.135,325.971,528.579,325.438z M533.022,328.485v18.863h-4.767v-18.863H533.022z"/>
	<path fill="#0060A2" d="M537.688,332.792c0.794-1.464,1.896-2.599,3.303-3.405c1.407-0.805,3.019-1.208,4.835-1.208
		c2.338,0,4.273,0.584,5.806,1.753c1.532,1.17,2.559,2.81,3.081,4.921h-5.142c-0.271-0.817-0.731-1.459-1.379-1.924
		c-0.646-0.466-1.446-0.698-2.4-0.698c-1.361,0-2.44,0.493-3.234,1.481c-0.795,0.987-1.191,2.389-1.191,4.205
		c0,1.793,0.396,3.184,1.191,4.171c0.794,0.987,1.873,1.481,3.234,1.481c1.93,0,3.189-0.863,3.779-2.588h5.142
		c-0.522,2.043-1.555,3.666-3.099,4.869c-1.543,1.203-3.473,1.805-5.788,1.805c-1.816,0-3.428-0.403-4.835-1.209
		s-2.509-1.94-3.303-3.405c-0.795-1.464-1.191-3.172-1.191-5.124S536.893,334.256,537.688,332.792z"/>
	<path fill="#0060A2" d="M575.619,339.347h-13.79c0.113,1.362,0.59,2.43,1.43,3.201s1.873,1.157,3.099,1.157
		c1.771,0,3.03-0.76,3.779-2.281h5.142c-0.545,1.816-1.589,3.309-3.133,4.478c-1.544,1.17-3.438,1.754-5.686,1.754
		c-1.816,0-3.445-0.403-4.887-1.209s-2.565-1.946-3.371-3.422s-1.208-3.178-1.208-5.107c0-1.952,0.396-3.666,1.191-5.142
		c0.794-1.476,1.906-2.61,3.337-3.405c1.43-0.794,3.075-1.191,4.938-1.191c1.793,0,3.398,0.386,4.817,1.157
		c1.419,0.772,2.52,1.867,3.303,3.286s1.175,3.047,1.175,4.886C575.755,338.189,575.709,338.802,575.619,339.347z M570.818,336.146
		c-0.023-1.227-0.466-2.208-1.328-2.945c-0.863-0.738-1.919-1.107-3.167-1.107c-1.181,0-2.174,0.357-2.979,1.073
		c-0.806,0.715-1.3,1.708-1.48,2.979H570.818z"/>
	<path fill="#0060A2" d="M582.292,346.821c-1.226-0.557-2.196-1.312-2.911-2.265s-1.106-2.009-1.175-3.167h4.801
		c0.091,0.727,0.448,1.328,1.072,1.805s1.401,0.715,2.333,0.715c0.907,0,1.617-0.181,2.128-0.544s0.766-0.829,0.766-1.396
		c0-0.613-0.312-1.073-0.936-1.379c-0.625-0.307-1.618-0.642-2.979-1.005c-1.408-0.341-2.56-0.692-3.456-1.056
		c-0.897-0.362-1.669-0.919-2.315-1.668c-0.647-0.749-0.971-1.759-0.971-3.03c0-1.044,0.301-1.998,0.902-2.86
		s1.464-1.544,2.588-2.043s2.445-0.749,3.967-0.749c2.247,0,4.04,0.562,5.38,1.686c1.339,1.123,2.077,2.639,2.213,4.545h-4.563
		c-0.068-0.749-0.38-1.345-0.937-1.787s-1.3-0.664-2.23-0.664c-0.862,0-1.526,0.159-1.991,0.477
		c-0.466,0.318-0.698,0.761-0.698,1.328c0,0.636,0.317,1.118,0.953,1.447s1.623,0.664,2.963,1.004
		c1.361,0.341,2.485,0.693,3.37,1.056c0.886,0.363,1.652,0.926,2.299,1.686c0.646,0.761,0.981,1.766,1.005,3.014
		c0,1.09-0.302,2.065-0.902,2.929c-0.603,0.862-1.465,1.538-2.588,2.025c-1.124,0.488-2.435,0.732-3.933,0.732
		C584.902,347.655,583.518,347.377,582.292,346.821z"/>
	<path fill="#0060A2" d="M620.002,335.482c-1.351,1.306-3.411,1.957-6.18,1.957h-4.563v9.909h-3.099v-23.732h7.661
		c2.678,0,4.716,0.646,6.111,1.94c1.396,1.294,2.095,2.962,2.095,5.005C622.028,332.537,621.353,334.177,620.002,335.482z
		 M617.636,333.763c0.817-0.749,1.226-1.816,1.226-3.201c0-2.928-1.68-4.392-5.039-4.392h-4.563v8.716h4.563
		C615.547,334.886,616.818,334.512,617.636,333.763z"/>
	<path fill="#0060A2" d="M632.821,344.488l5.788-15.799h3.303l-7.32,18.659h-3.609l-7.321-18.659h3.337L632.821,344.488z"/>
	<path fill="#0060A2" d="M648.756,331.243v10.998c0,0.908,0.192,1.549,0.579,1.924c0.386,0.374,1.056,0.562,2.009,0.562h2.281v2.622
		h-2.792c-1.726,0-3.02-0.396-3.882-1.191c-0.863-0.795-1.294-2.1-1.294-3.916v-10.998h-2.417v-2.554h2.417v-4.699h3.099v4.699
		h4.869v2.554H648.756z"/>
	<path fill="#0060A2" d="M656.86,346.94c-0.409-0.409-0.613-0.908-0.613-1.499c0-0.59,0.204-1.089,0.613-1.498
		c0.408-0.408,0.907-0.612,1.498-0.612c0.567,0,1.05,0.204,1.447,0.612c0.396,0.409,0.596,0.908,0.596,1.498
		c0,0.591-0.199,1.09-0.596,1.499c-0.397,0.408-0.88,0.612-1.447,0.612C657.768,347.553,657.269,347.349,656.86,346.94z"/>
	<path fill="#0060A2" d="M676.711,344.829h8.308v2.52h-11.406v-23.732h3.099V344.829z"/>
	<path fill="#0060A2" d="M692.101,331.243v10.998c0,0.908,0.192,1.549,0.579,1.924c0.386,0.374,1.056,0.562,2.009,0.562h2.281v2.622
		h-2.792c-1.726,0-3.02-0.396-3.882-1.191c-0.863-0.795-1.294-2.1-1.294-3.916v-10.998h-2.417v-2.554h2.417v-4.699h3.099v4.699
		h4.869v2.554H692.101z"/>
	<path fill="#0060A2" d="M700.716,332.929c0.771-1.441,1.833-2.56,3.184-3.354c1.35-0.794,2.865-1.191,4.546-1.191
		c1.452,0,2.803,0.335,4.052,1.004c1.248,0.67,2.201,1.55,2.86,2.64v-9.875h3.132v25.197h-3.132v-3.507
		c-0.613,1.112-1.521,2.025-2.725,2.74c-1.203,0.716-2.61,1.073-4.222,1.073c-1.657,0-3.162-0.409-4.512-1.226
		c-1.351-0.817-2.412-1.964-3.184-3.439c-0.772-1.476-1.158-3.155-1.158-5.04C699.558,336.044,699.943,334.37,700.716,332.929z
		 M714.506,334.308c-0.567-1.044-1.334-1.845-2.299-2.4c-0.965-0.557-2.025-0.835-3.184-0.835c-1.157,0-2.213,0.272-3.166,0.817
		c-0.954,0.545-1.715,1.34-2.281,2.384c-0.568,1.044-0.852,2.271-0.852,3.677c0,1.431,0.283,2.674,0.852,3.729
		c0.566,1.056,1.327,1.862,2.281,2.418c0.953,0.557,2.009,0.834,3.166,0.834c1.158,0,2.219-0.277,3.184-0.834
		c0.965-0.556,1.731-1.362,2.299-2.418c0.567-1.055,0.852-2.286,0.852-3.694C715.357,336.577,715.073,335.352,714.506,334.308z"/>
	<path fill="#0060A2" d="M723.222,346.94c-0.409-0.409-0.613-0.908-0.613-1.499c0-0.59,0.204-1.089,0.613-1.498
		c0.408-0.408,0.907-0.612,1.498-0.612c0.567,0,1.05,0.204,1.447,0.612c0.396,0.409,0.596,0.908,0.596,1.498
		c0,0.591-0.199,1.09-0.596,1.499c-0.397,0.408-0.88,0.612-1.447,0.612C724.129,347.553,723.63,347.349,723.222,346.94z"/>
</g>
<path fill="#0060A2" d="M630.004,235.253H597.09c-3.998,0-7.242,3.24-7.242,7.24c0,3.999,3.244,7.24,7.242,7.24h25.674v20.977
	v14.108c0,3.785-3.084,6.867-6.867,6.867h-51.725c-3.998,0-7.244,3.241-7.244,7.24c0,4,3.246,7.24,7.244,7.24h51.725
	c11.772,0,21.348-9.576,21.348-21.348V270.71v-28.217C637.244,238.493,634.004,235.253,630.004,235.253z"/>
<path fill="#0060A2" d="M706.129,263.47h-9.408h-18.803h-9.406c-3.787,0-6.869-3.082-6.869-6.869c0-3.785,3.082-6.867,6.869-6.867
	h51.721c3.998,0,7.242-3.241,7.242-7.24c0-4-3.244-7.24-7.242-7.24h-51.721c-11.773,0-21.35,9.575-21.35,21.348
	c0,11.772,9.576,21.351,21.35,21.351h9.406h18.803h9.408c3.785,0,6.867,3.082,6.867,6.867c0,3.785-3.082,6.867-6.867,6.867h-51.725
	c-3.998,0-7.24,3.241-7.24,7.24c0,4,3.242,7.24,7.24,7.24h51.725c11.773,0,21.348-9.576,21.348-21.348
	C727.477,273.046,717.902,263.47,706.129,263.47z"/>
<g>
	<path fill="#0060A2" d="M473.939,249.733h65.832c4,0,7.24-3.241,7.24-7.24c0-4-3.24-7.24-7.24-7.24h-65.832
		c-4,0-7.242,3.24-7.242,7.24C466.697,246.492,469.939,249.733,473.939,249.733z"/>
	<path fill="#0060A2" d="M488.047,277.951h37.24c3.998,0,7.242-3.241,7.242-7.241c0-3.999-3.244-7.24-7.242-7.24h-37.24
		c-11.77,0-21.35,9.576-21.35,21.349c0,11.771,9.58,21.348,21.35,21.348h51.725c4,0,7.24-3.24,7.24-7.24
		c0-3.999-3.24-7.24-7.24-7.24h-51.725c-3.787,0-6.867-3.082-6.867-6.867C481.18,281.033,484.26,277.951,488.047,277.951z"/>
</g>
<g>
	<path fill="#0060A2" d="M449.543,306.168c-2.49,0-4.916-1.285-6.262-3.594l-26.66-45.708l-26.661,45.708
		c-2.013,3.455-6.442,4.627-9.903,2.605c-3.454-2.012-4.62-6.448-2.605-9.901l32.914-56.434c1.296-2.225,3.677-3.592,6.255-3.592
		c2.574,0,4.957,1.367,6.253,3.592l32.918,56.434c2.016,3.453,0.85,7.888-2.608,9.901
		C452.039,305.85,450.783,306.168,449.543,306.168z"/>
</g>
<path fill="none" d="M119.832,382.469c0,0,33.832-27.264,120.049-27.264c86.215,0,120.049,27.264,120.049,27.264l-120.121-178.14
	L119.832,382.469z"/>
<g>
	<path fill="#787A74" d="M248.33,316.015c0,0,8.699,22.67-13.025,39.284c-0.713,0.022-1.144-0.074-1.897-0.046
		c5.505-6.028,13.977-17.592,5.267-35.616l-11.862-25.722l9.152-4.311L248.33,316.015z"/>
	<circle fill="#787A74" cx="227.706" cy="283.718" r="5.213"/>
	<circle fill="#8DC63F" cx="225.569" cy="284.635" r="5.213"/>
	<path fill="#8DC63F" d="M245.983,317.132c0,0,9.532,21.726-12.193,38.34c-0.713,0.021-1.47,0.045-2.223,0.073
		c5.505-6.027,13.471-16.768,4.761-34.791l-11.862-25.723l9.152-4.311L245.983,317.132z"/>
</g>
</svg>
