<svg width="75" height="90" viewBox="0 0 75 90" fill="none" xmlns="http://www.w3.org/2000/svg">
<path fill-rule="evenodd" clip-rule="evenodd" d="M13.4048 55.3449L29.8007 50.9582V45.6942C25.0795 42.6303 23.4927 40.018 22.2674 33.85C16.7307 30.7573 15.676 28.5214 18.7224 23.3219C17.3953 11.6022 18.9188 7.00529 26.6987 3.143C35.8022 -1.16077 40.528 -0.933019 48.4122 3.143C56.9178 6.29345 57.542 11.5267 56.8317 23.3219C59.0473 26.8313 59.9336 30.7793 53.2866 33.85C52.1884 39.7002 50.3769 42.4236 45.7534 45.6942V50.9582L61.263 55.3449C63.3408 55.7741 63.8788 56.5562 64.808 57.977H11.1891C11.4242 56.9879 11.9428 56.4096 13.4048 55.3449ZM0.997129 87.8066H10.746L4.54218 62.8024C4.54218 62.8024 4.54218 59.7317 7.20097 59.7317H67.91C70.5687 59.7317 71.0119 61.0477 70.5687 63.241L64.808 87.8066H73.6707C75.4431 87.8066 75.4431 89.9277 73.6707 90H0.997129C-0.332392 90 -0.33236 87.7343 0.997129 87.8066ZM43.5 47C39.107 48.9767 37.2509 48.4594 33.3589 47.3746C32.9324 47.2557 32.4814 47.13 32 47C32 51.8254 32.2393 56 38 56C42.0127 56 43.5 54.8961 43.5 47ZM14.1768 78.0836C13.4383 74.7204 11.8726 67.8187 11.5181 67.1168H23.0395C25.6983 67.1168 25.6983 64.4847 23.0395 64.4847H11.5181C9.30245 64.4847 8.41627 64.9234 8.85927 66.6781L11.5181 78.9609C11.9612 80.2769 14.62 79.8383 14.1768 78.0836ZM12.4043 82.4703C11.9612 80.7156 14.62 80.2769 15.0631 81.5929L15.5062 83.7863C15.9494 85.1023 13.2906 85.9797 12.8475 84.6636L12.4043 82.4703ZM36.3334 70.6261C32.5374 70.6261 31.3113 74.428 31.459 76.3289C31.6294 78.5222 33.6746 80.7156 36.3334 80.7156C38.9922 80.7156 41.2079 78.5222 41.2079 76.3289C41.2079 74.1355 40.1294 70.6261 36.3334 70.6261ZM44.8672 14.4762C45.2723 18.515 47.5082 19.639 51.5142 20.9574V34.7972C48.6001 42.4028 43.9961 45.4712 36.8908 45.6219C31.3029 45.6219 26.0616 41.2473 24.04 34.7972V20.9574C24.2878 17.8064 26.0714 17.2095 30.5593 17.0649C38.229 17.9515 40.7562 18.0015 44.8672 14.4762Z" fill="#14286A"/>
<path d="M26.7474 22.8244C26.3811 22.8244 24.6105 21.6556 24 21.0711V23.7011L26.2895 25.016C26.2895 31.5908 35.4476 32.0291 35.4476 25.016C37.4816 23.9632 38.4047 24.2961 40.0266 25.016C40.0266 32.4674 49.1846 31.5908 49.1846 25.016L51.5 23.7011V21.0711L48.2688 23.2627C45.3383 19.7562 42.1635 21.8017 40.9424 23.2627C38.7445 21.1588 35.7528 22.3861 34.5318 23.2627C30.8685 18.4412 27.2053 22.8244 26.7474 22.8244Z" fill="#14286A"/>
<path d="M39.1108 31.1525C39.1108 29.8375 36.3634 29.8375 36.3634 31.1525V34.2207C36.3634 35.5356 39.1108 35.5356 39.1108 34.2207V31.1525Z" fill="#14286A"/>
<path d="M40.0266 35.9739C38.4178 37.1217 37.4501 37.3002 35.4476 35.9739C33.7404 36.2105 33.6697 36.7506 34.5318 38.1655C37.3313 39.9278 38.8051 39.8914 41.4003 37.7272C41.4792 36.5204 41.2689 36.0644 40.0266 35.9739Z" fill="#14286A"/>
<path d="M26.7474 22.8244C26.3811 22.8244 24.6105 21.6556 24 21.0711V23.7011L26.2895 25.016C26.2895 31.5908 35.4476 32.0291 35.4476 25.016C37.4816 23.9632 38.4047 24.2961 40.0266 25.016C40.0266 32.4674 49.1846 31.5908 49.1846 25.016L51.5 23.7011V21.0711L48.2688 23.2627C45.3383 19.7562 42.1635 21.8017 40.9424 23.2627C38.7445 21.1588 35.7528 22.3861 34.5318 23.2627C30.8685 18.4412 27.2053 22.8244 26.7474 22.8244Z" stroke="black"/>
<path d="M39.1108 31.1525C39.1108 29.8375 36.3634 29.8375 36.3634 31.1525V34.2207C36.3634 35.5356 39.1108 35.5356 39.1108 34.2207V31.1525Z" stroke="black"/>
<path d="M40.0266 35.9739C38.4178 37.1217 37.4501 37.3002 35.4476 35.9739C33.7404 36.2105 33.6697 36.7506 34.5318 38.1655C37.3313 39.9278 38.8051 39.8914 41.4003 37.7272C41.4792 36.5204 41.2689 36.0644 40.0266 35.9739Z" stroke="black"/>
</svg>
