<svg width="68" height="90" viewBox="0 0 68 90" fill="none" xmlns="http://www.w3.org/2000/svg">
<path fill-rule="evenodd" clip-rule="evenodd" d="M50.3276 23.9455H17.5891C12.4202 23.9455 12.8512 18.2857 16.7276 18.2857C17.6421 10.164 20.0065 6.9736 26.6353 3.04761L27.4968 10.0136C27.9276 13.4966 30.5122 12.6258 30.0814 10.0136L28.7891 3.04761C28.3537 1.45928 28.7533 0.77445 30.943 0H34.8199C38.6198 0.302116 39.8269 0.857826 39.1276 3.04761L37.8353 9.5782C36.9737 13.4966 39.9641 13.238 40.4199 10.0136C40.8756 6.78917 41.2814 3.04761 41.2814 3.04761C47.3122 6.53059 50.1406 9.99105 51.1891 18.2857C55.4968 19.1564 55.066 23.9455 50.3276 23.9455ZM20.6052 45.2788C20.1742 48.3264 24.9227 52.4126 33.5284 53.1155C41.5743 53.159 47.313 48.7617 47.313 45.2788C55.5762 46.681 60.1267 49.1592 65.4053 57.9046C68.8514 66.612 69.0199 70.8077 64.9745 77.061C59.3745 66.612 48.1745 63.9998 42.1437 72.2719H25.7745C17.5899 64.4352 7.68217 66.612 2.94371 77.061C-3.51738 68.3535 -0.0720469 48.3264 20.6052 45.2788ZM7.68166 76.6256L15.0047 76.6256L17.1586 80.1086L15.0933 84.2835H7.33948C9.49333 88.6373 18.2662 94.0439 24.1246 84.6398H43.94C45.6631 88.9936 54.0324 94.2146 60.2355 84.4623H52.9124L50.7586 80.5439L52.9124 76.6256L60.2355 76.6256C58.0816 72.2719 50.7586 67.0474 43.8663 76.1902H23.7925C21.4951 72.1267 13.7124 67.4827 7.68166 76.6256ZM16.5226 27.0754C16.7555 31.3113 18.5939 36.3763 21.5502 40.3984C24.4993 44.4108 28.7707 47.6495 33.9588 47.6495C39.1022 47.6495 43.3801 44.6782 46.3095 40.7305C49.2379 36.7843 50.9665 31.6846 50.9665 26.9931H47.9665C47.9665 31.009 46.4644 35.4876 43.9004 38.9427C41.3376 42.3963 37.8616 44.6495 33.9588 44.6495C30.1008 44.6495 26.6184 42.2284 23.9675 38.6217C21.3237 35.0248 19.716 30.5116 19.5181 26.9108L16.5226 27.0754Z" fill="#14286A"/>
</svg>
