<svg width="78" height="92" viewBox="0 0 78 92" fill="none" xmlns="http://www.w3.org/2000/svg">
<path d="M0 92C-0.000844263 76.5 13.5 64 29 63L39 72.5L47.5 63.5C65 65 77 76.5 77.5 92H0Z" fill="#14286A"/>
<path d="M20.5 46C16.369 41.906 15.9843 38.9707 17 32.5L22.5 37.5H53.5L60.5 32.5C61.1022 39.1331 60.0678 42.1176 56.5 46.5C50.5736 60.263 47.1811 61.6115 39 63C26.2884 62.3103 22.5 54.5 20.5 46Z" fill="#14286A"/>
<path d="M53.1412 35H22.9361C22.658 35 22.3925 34.8842 22.2033 34.6805L16 28L13.5 27V24.5L15.5 23C15.5 10.5 26 1 33 0V7.5H36.5V0H41V7.5H44.5V0C51.5 0 62 12 62 23L64 24.5V27L62 28L53.7769 34.7719C53.5979 34.9194 53.3732 35 53.1412 35Z" fill="#14286A"/>
<path d="M0 92C-0.000844263 76.5 13.5 64 29 63L39 72.5L47.5 63.5C65 65 77 76.5 77.5 92H0Z" stroke="black"/>
<path d="M20.5 46C16.369 41.906 15.9843 38.9707 17 32.5L22.5 37.5H53.5L60.5 32.5C61.1022 39.1331 60.0678 42.1176 56.5 46.5C50.5736 60.263 47.1811 61.6115 39 63C26.2884 62.3103 22.5 54.5 20.5 46Z" stroke="black"/>
<path d="M53.1412 35H22.9361C22.658 35 22.3925 34.8842 22.2033 34.6805L16 28L13.5 27V24.5L15.5 23C15.5 10.5 26 1 33 0V7.5H36.5V0H41V7.5H44.5V0C51.5 0 62 12 62 23L64 24.5V27L62 28L53.7769 34.7719C53.5979 34.9194 53.3732 35 53.1412 35Z" stroke="black"/>
</svg>
