<svg width="86" height="90" viewBox="0 0 86 90" fill="none" xmlns="http://www.w3.org/2000/svg">
<path fill-rule="evenodd" clip-rule="evenodd" d="M52.4765 12.4474C58.2467 10.7592 62.146 10.2033 71.0006 12.4554C73.3366 11.8467 74.2687 11.1216 74.9481 8.83929C75.492 6.85394 75.0306 5.70481 73.3689 3.61607C70.4086 2.85638 68.9357 3.20823 67.4485 4.41964C66.5261 1.78217 65.2953 0.843821 61.9222 0C58.304 0.665439 57.2417 1.73947 56.3962 4.41964C54.1929 3.12758 52.9779 2.83859 50.8704 3.61607C48.9946 5.10427 48.48 6.14225 48.5294 8.42952C49.2578 10.9281 50.081 12.4554 52.4765 12.4474ZM2.71506 10.8482C-0.442406 10.8482 -2.02145 4.41964 4.68837 4.41964H31.924C37.4501 4.82143 36.2659 10.8482 32.3187 10.8482C30.8786 16.6621 31.1159 20.8315 31.4302 26.3533C31.4629 26.9281 31.4965 27.5175 31.5291 28.125C33.5029 33.3482 25.2139 36.1607 24.4244 29.3304C24.8191 34.5536 17.3195 34.1518 17.3195 29.3304C17.3195 34.5536 10.6094 34.5536 9.81994 29.3304C9.42523 33.75 5.47807 34.5536 2.71506 31.3393C0.728366 23.787 0.78892 19.3613 2.71506 10.8482ZM14.9512 47.0089V36.1607L17.3195 34.9554C18.7095 35.8558 19.5877 36.0853 21.2667 36.1607V47.0089C18.3843 46.019 16.9102 45.8079 14.9512 47.0089ZM14.5563 69.5089V90H21.2664V81.9643L14.5563 69.5089ZM15.3457 63.8839C13.1535 62.8845 12.3438 61.8691 11.7935 59.0625V54.6429C12.9177 50.8426 14.4055 50.1325 18.109 49.4196C21.6614 49.8214 23.202 51.6672 24.0297 54.6429V59.0625C23.9071 60.4913 23.5565 60.8864 22.8456 61.4732L30.7399 73.125L33.1082 69.5089L41.7917 78.3482L32.7132 86.3839C28.9692 87.9085 27.2611 87.4787 25.2136 83.5714L15.3457 63.8839ZM45.7391 57.0536V71.1161C45.2588 71.8168 43.4039 74.99 43.3708 75.5357C43.3708 75.5357 37.7129 69.6429 35.0815 67.0982L39.0289 61.4732C40.9463 58.4643 42.8045 57.6788 45.7391 57.0536ZM48.5021 71.9196V56.25L48.7622 56.1965C50.8908 55.759 52.1618 55.4977 54.4226 54.2411V69.5089C54.4228 70.7143 56.0017 71.9196 56.7911 71.9196H65.8696C69.0273 71.9196 69.0273 70.3125 69.0273 67.5V53.8393C71.0509 55.0843 72.3511 55.6189 74.9478 56.25V71.9196C79.2899 76.7411 78.8948 82.2721 74.9478 87.1875V90H48.5021V87.1875C44.4711 81.1583 44.663 77.8186 48.5021 71.9196ZM57.1858 49.8214L57.1856 69.1071H66.264L66.2643 49.8214C62.9933 51.3296 61.0568 51.6299 57.1858 49.8214ZM70.2115 49.8214L70.6062 44.5982C64.0416 49.5148 60.4135 49.4965 53.2387 44.5982V49.0179C53.2387 52.2321 52.1363 53.0763 50.4754 53.0357C47.4768 52.9625 41.3972 55.8482 39.8183 56.6518C39.3476 56.4855 39.9103 51.5148 42.5814 49.8214C43.66 48.1646 44.0397 47.123 44.1602 45V26.5179C44.0197 20.9212 44.2571 17.4418 47.3179 12.4554C49.6862 14.4643 51.7469 15.4464 54.8176 14.4643C59.9263 13.2696 62.8335 12.9707 68.2376 14.4643C70.56 15.4853 72.9745 15.6696 76.1322 12.4554C78.7622 16.8268 79.5127 19.2854 79.6844 23.7054V41.3839C79.4521 45.0953 79.7108 47.1367 81.658 50.625C84.1818 52.824 84.1295 54.1593 84.054 56.0873L84.054 56.0878C84.042 56.3929 84.0295 56.7129 84.0265 57.0536L72.9745 53.0357C71.2197 52.4463 70.2115 51.8304 70.2115 49.8214ZM77.7108 71.1161V57.4554C82.0954 58.2965 84.0011 59.7861 85.9998 65.0893V76.7411H80.4738C79.7659 74.2876 79.1443 73.0624 77.7108 71.1161ZM81.9977 79.4887H81.9978C83.3266 79.3945 85.2104 79.261 85.2104 79.5536V90H77.7108V87.9911C79.7674 85.7739 80.5476 84.0354 80.8685 79.5536C81.0831 79.5536 81.5016 79.5239 81.9974 79.4888L81.9977 79.4887ZM11.7925 10.8482C10.5843 15.8474 10.4784 18.8613 11.003 24.5089H7.45067C7.05659 18.4821 7.45168 14.8661 8.63562 10.8482H11.7925ZM18.1086 24.5089C17.6648 19.706 17.712 16.1369 19.2921 10.8482H16.1351C14.7279 16.2734 14.6492 19.2475 14.9509 24.5089H18.1086ZM26.7918 10.8482C25.2171 16.0328 25.1973 19.6171 25.6082 24.5089H22.0558C21.4989 18.8497 22.0036 15.836 23.2393 10.8482H26.7918ZM50.08 25.7143C57.5016 24.7519 61.132 23.7053 66.2633 19.6875C68.4904 22.5738 70.029 23.8782 73.3682 25.7143V32.5446C73.3771 34.4823 73.1745 35.6266 72.5788 36.5625C70.2312 40.5721 68.4815 42.2139 64.6845 44.1964C62.5273 44.8309 61.3147 44.878 59.1584 44.1964C54.0271 41.7857 52.0536 39.7768 50.8694 36.1607C50.4104 35.2487 50.248 34.4012 50.08 32.5446V25.7143Z" fill="#14286A"/>
<path d="M65.4749 36.5625C62.667 37.8671 61.115 37.7356 58.3701 36.5625L56.3965 38.5714C59.5542 41.3839 65.0802 41.3839 67.0538 38.5714L65.4749 36.5625Z" fill="#14286A"/>
<path d="M55.2125 27.3214C53.3179 27.3214 52.8442 28.692 52.8442 29.7321C52.8442 30.7722 53.3179 32.1428 55.2125 32.1428C57.1072 32.1428 57.5808 30.5357 57.5808 29.7321C57.5808 28.9286 57.1072 27.3214 55.2125 27.3214Z" fill="#14286A"/>
<path d="M69.0275 27.3214C67.1328 27.3214 66.6592 28.692 66.6592 29.7321C66.6592 30.7722 67.1328 32.1428 69.0275 32.1428C70.9221 32.1428 71.3958 30.5357 71.3958 29.7321C71.3958 28.9286 70.9221 27.3214 69.0275 27.3214Z" fill="#14286A"/>
</svg>
