<svg width="101" height="101" viewBox="0 0 101 101" fill="none" xmlns="http://www.w3.org/2000/svg">
<path d="M73.3567 32.3455L38.3606 32.3454C35.0445 32.3454 35.4132 28.226 38.3606 28.226H40.5714C40.5714 19.6644 47.8522 13.7026 56.2138 13.9784C64.1359 13.9784 71.3159 20.3051 71.3159 28.2261H73.3567C76.3047 28.2261 76.3047 32.3455 73.3567 32.3455Z" fill="#14286A"/>
<path d="M40.4225 33.4951C39.2209 46.9212 46.5469 52.9312 55.514 52.9312C64.4811 52.9312 72.3929 46.3146 70.752 33.4951H40.4225Z" fill="#2645AB"/>
<path fill-rule="evenodd" clip-rule="evenodd" d="M34.5045 46.5913L15.8834 65.2123L6.21484 59.1246L11.1088 54.2306C11.1088 54.2306 15.1058 56.9182 15.406 56.618C15.7062 56.3177 11.9444 53.1564 11.9444 53.1564L17.9345 44.5838C17.9345 44.5838 21.7324 47.4268 21.9711 47.1881C22.2098 46.9494 18.5095 43.7265 18.5095 43.7265L21.4936 39.0712C21.4936 39.0712 27.82 43.7265 28.0587 43.4878C28.2975 43.249 22.2098 38.3551 22.2098 38.3551L25.4327 32.7449L34.5045 46.5913ZM59.6558 87.4387L29.4911 58.2889L37.8467 49.9333C39.1597 48.6203 37.0112 46.7105 35.8175 47.9041L17.1965 66.5251C16.2416 67.4801 18.1514 69.6286 19.2257 68.5543L27.2232 60.5569L53.399 87.4387H59.6558Z" fill="#2645AB"/>
<path fill-rule="evenodd" clip-rule="evenodd" d="M60.7633 87.2347H72.0202V70.7041C72.0202 70.7041 69.3604 71.3218 68.5721 67.8469C67.8318 64.5835 67.9636 53.9694 67.9636 53.9694L64.7183 52.7449C64.7183 52.7449 63.0978 54.8777 55.3882 54.7857C47.7181 54.6941 45.8552 52.7449 45.8552 52.7449L42.4071 53.9694C42.4071 53.9694 43.7125 63.8323 42.4071 67.8469C42.2606 68.2974 42.0849 68.6774 41.8915 68.9978L60.7633 87.2347ZM38.959 73.5415L52.2925 87.2347H38.959V73.5415Z" fill="#2645AB"/>
<path fill-rule="evenodd" clip-rule="evenodd" d="M40.7416 67.8441V54.7856C40.2627 55.1337 39.7963 55.4679 39.3426 55.7931C37.0092 57.4656 35.0118 58.8972 33.3682 60.7188L40.7416 67.8441ZM30.6568 64.8503L40.7416 75.2072V87.3534H27.8617C27.7182 75.6763 28.6776 69.1564 30.6568 64.8503ZM70.7407 87.3534V54.7856C71.2197 55.1337 71.6861 55.4679 72.1397 55.7931C79.8627 61.3286 83.9048 64.2257 83.6207 87.3534H70.7407Z" fill="#14286A"/>
</svg>
